<svg xmlns="http://www.w3.org/2000/svg" width="225" height="36" viewBox="0 0 225 36"><g><g><g><g><path fill="#0b6f4a" d="M76.233 28.81h-9.945v-9.73h8.84c.586 0 1.215-.4 1.215-1.532 0-1.126-.629-1.525-1.215-1.525h-8.84V7.21h9.76c.59 0 1.217-.405 1.217-1.527 0-1.131-.626-1.53-1.217-1.53H64.272c-.588 0-1.215.399-1.215 1.53V30.34c0 1.125.627 1.526 1.215 1.526h11.96c.587 0 1.216-.4 1.216-1.526 0-1.128-.629-1.53-1.215-1.53"/></g><g><path fill="#0b6f4a" d="M97.881 3.709c-5.047 0-8.575 3.787-8.575 9.219v17.86c0 .324.11 1.376 1.614 1.376 1.498 0 1.619-1.052 1.619-1.376v-17.9c0-3.722 2.1-6.123 5.342-6.123 3.243 0 5.342 2.401 5.342 6.123v17.9c0 .324.109 1.376 1.61 1.376 1.502 0 1.623-1.052 1.623-1.376v-17.86c0-5.432-3.528-9.22-8.575-9.22"/></g><g><path fill="#0b6f4a" d="M127.477 28.81h-4.643V7.21h4.6c3.246 0 5.343 2.406 5.343 6.128v9.341c0 3.724-2.078 6.132-5.3 6.132m-.042-24.658h-6.183c-.892 0-1.651.788-1.651 1.718v24.277c0 .934.76 1.718 1.651 1.718h6.183c5.049 0 8.574-3.793 8.574-9.22v-9.267c0-5.433-3.525-9.226-8.574-9.226"/></g><g><path fill="#0b6f4a" d="M156.99 29.257c-3.242 0-5.341-2.403-5.341-6.12v-10.25c0-3.722 2.099-6.122 5.342-6.122 3.253 0 5.34 2.4 5.34 6.121v10.25c0 3.718-2.087 6.12-5.34 6.12m0-25.547c-5.047 0-8.575 3.79-8.575 9.217v10.171c0 5.421 3.528 9.215 8.575 9.215 5.044 0 8.574-3.794 8.574-9.215V12.926c0-5.427-3.53-9.217-8.574-9.217"/></g><g><path fill="#0b6f4a" d="M186.555 3.709c-5.048 0-8.576 3.786-8.576 9.217v10.171c0 5.421 3.528 9.215 8.576 9.215 5.129 0 8.574-3.519 8.574-8.758v-.15c0-.326-.122-1.375-1.621-1.375-1.503 0-1.614 1.05-1.614 1.375v.146c-.07 3.624-2.015 5.707-5.34 5.707-3.242 0-5.341-2.405-5.341-6.12v-10.25c0-3.722 2.099-6.122 5.342-6.122 3.324 0 5.27 2.08 5.34 5.702v.15c0 .324.11 1.373 1.613 1.373 1.499 0 1.621-1.05 1.621-1.373v-.15c0-5.239-3.445-8.758-8.574-8.758"/></g><g><path fill="#0b6f4a" d="M216.292 6.763c3.242 0 5.34 2.403 5.34 6.125v5.506H210.95v-5.506c0-3.722 2.097-6.125 5.34-6.125m0-3.054c-5.046 0-8.575 3.79-8.575 9.219V30.79c0 .322.121 1.374 1.624 1.374 1.499 0 1.61-1.052 1.61-1.374v-9.338h10.682v9.338c0 .322.122 1.374 1.62 1.374 1.503 0 1.614-1.052 1.614-1.374V12.928c0-5.428-3.528-9.22-8.574-9.22"/></g></g><g><path fill="#0b6f4a" d="M28.504 16.611c-5.28 0-9.04 3.492-9.364 8.66-.402 4.137-3.865 7.373-8.002 7.373-4.355 0-7.898-3.668-7.898-8.183 0-4.873 7.66-5.008 7.734-5.008 5.274 0 9.042-3.5 9.385-8.687.396-4.109 3.85-7.328 7.869-7.328h.097c4.362 0 7.91 3.657 7.91 8.154 0 4.875-7.655 5.02-7.731 5.02m7.731 7.85c0 4.514-3.548 8.182-7.976 8.182-3.508 0-6.36-2.943-6.36-6.568 0-.086.005-.168.011-.243.009-.105.017-.203.006-.203l.02-.127-.003-.157c.297-3.61 2.8-5.846 6.57-5.846 2.28-.003 5.462-.638 7.732-2.34zM3.24 11.591c0-4.497 3.543-8.154 7.898-8.154h.064c3.505 0 6.358 2.938 6.358 6.55l-.01.534c-.231 3.723-2.753 6.037-6.59 6.037-2.288.018-5.469.662-7.72 2.343zM28.228.535c-3.567 0-6.954 1.92-8.94 4.982-1.581-3.016-4.68-4.976-8.15-4.982C5.234.535.432 5.495.432 11.592v12.87c0 6.104 4.802 11.073 10.822 11.073 3.554 0 6.943-1.92 8.938-4.984 1.563 3.007 4.653 4.962 8.036 4.984h.097c5.913 0 10.726-4.97 10.726-11.074V11.592C39.05 5.494 34.238.535 28.228.535"/></g></g></g></svg>